<?xml version="1.0" encoding="utf-8"?>
<!-- Generator: Adobe Illustrator 18.0.0, SVG Export Plug-In . SVG Version: 6.00 Build 0)  -->
<!DOCTYPE svg PUBLIC "-//W3C//DTD SVG 1.1//EN" "http://www.w3.org/Graphics/SVG/1.1/DTD/svg11.dtd">
<svg version="1.1" id="Layer_1" xmlns="http://www.w3.org/2000/svg" xmlns:xlink="http://www.w3.org/1999/xlink" x="0px" y="0px"
	 viewBox="0 0 388.7 86.6" enable-background="new 0 0 388.7 86.6" xml:space="preserve">
<rect x="0" y="0" fill="#BAA87A" width="69.7" height="82.5"/>
<g>
	<path d="M52.5,54.6c0,0-0.6-3.8-3-6.9c1.2-1.4,1.2-1.5,1.2-1.5s-0.4-0.5-1.3-1.4c-0.9-0.9-1.4-1.2-1.4-1.2s-0.9,0.6-1.6,1.2
		c-1.9-1.8-4.3-2.8-4.3-2.8s-0.5,0.2-1.4,1.1c-1.1,1-1.6,1.7-1.6,1.7s1.1,2,3.1,4.2c-2.2,2.2-5,5.2-7.5,7.6
		c-2.7-2.7-5.4-5.4-7.8-7.7c1.5-1.7,2.9-3.6,2.9-3.6s-0.4-0.7-1.4-1.8c-1-1.1-1.6-1.3-1.6-1.3s-2.2,1.2-4,2.8c-1-1-1.3-1.3-1.3-1.3
		s-0.4,0.3-1.4,1.2c-0.9,0.9-1.3,1.4-1.3,1.4s0.3,0.3,1.2,1.4c-1.7,1.9-2.8,4.2-2.8,4.2s0.3,0.6,1.3,1.6c1,1,1.7,1.3,1.7,1.3
		s1.9-1.4,3.6-2.9c2.2,2.5,4.9,5.4,7.5,8.3c-0.4,0.4-0.7,0.7-1.1,1.1c-8,8.3-8,8.6-8,8.6s0.3,0.7,1.4,1.8c1,1,2,1.5,2,1.5
		s0.3,0,8.2-8.3c0.3-0.3,0.6-0.6,0.9-0.9c0.3,0.3,0.6,0.6,0.9,0.9c8,8.3,8.2,8.3,8.2,8.3s0.9-0.4,2-1.4c1-1,1.4-1.8,1.4-1.8
		s0-0.3-8-8.6c-0.3-0.4-0.7-0.7-1.1-1.1c2.4-2.6,5.2-5.9,7.3-8.2C48.7,54.1,52.5,54.6,52.5,54.6z"/>
	<path d="M51.9,23.6c-0.8-1-1.9-1.4-4-1c-1.2,0.2-3.1,0.5-4,0.6c-0.1-0.4-0.3-0.8-0.7-1.1c-0.8-0.7-1.8-0.8-3.2-0.4
		c-0.7,0.2-2.7,0.7-4.1,1.1c0-0.5-0.1-0.8-0.2-1.2c1.4-0.4,2.4-1.6,2.4-3.1c0-1.6-1.1-2.9-2.5-3.2v-2.3h2.6v-1.4h-2.6V9.1h-1.3v2.6
		h-2.6v1.4h2.6v2.3c-1.5,0.3-2.5,1.6-2.5,3.2c0,1.5,1,2.8,2.4,3.1c-0.1,0.4-0.2,0.6-0.2,1.2c-1.3-0.4-3.4-0.9-4.1-1.1
		c-1.4-0.4-2.4-0.2-3.2,0.4c-0.4,0.3-0.5,0.7-0.7,1.1c-0.9-0.2-2.8-0.4-4-0.6c-2.1-0.4-3.2,0-4,1c-1,1.3-0.5,2.9-0.3,3.3
		c0.2,0.4,4.4,12.6,4.4,12.6h25.9c0,0,4.3-12.2,4.4-12.6C52.4,26.5,52.9,24.9,51.9,23.6z M19.1,24.5c0.2-0.2,0.6-0.8,2.8-0.5
		c1.2,0.2,2.9,0.5,3.8,0.7c0,0.1,0,0.3,0,0.4c-1.4,0.1-2.7,0.3-4,0.6c-1.5,0.3-2.5,0.6-3,0.7C18.6,25.7,18.7,25,19.1,24.5z
		 M26.9,34.1c-0.1,1.3-0.4,1.5-0.6,1.6c-0.2,0.2-0.8,0.4-1.5,0.4c-0.8,0-1.5-0.2-1.8-0.5c-0.3-0.3-0.7-0.8-1.3-1.7
		c-0.2-0.3-0.5-0.8-0.7-1.3c0-0.1-0.1-0.2-0.1-0.3c0.7,0.4,1.6,0.9,2,0.8c0.7-0.1,1.1-0.3,0.7-2c-0.5-1.7-1-1.8-1.7-1.6
		c-0.5,0.2-1.1,0.6-1.5,1c0.4-0.8,0.9-1.9,0.7-2.7c-0.1-0.6-0.5-0.9-0.9-1.1c1.2-0.3,3-0.7,5.7-0.9c0,0.3,0,0.5,0.1,0.7
		c-0.4,0.2-0.9,0.6-0.8,1.4c0.1,0.8,1,1.9,1.6,2.6c-0.6-0.4-1.5-1-1.9-0.9c-0.7,0.1-1.1,0.2-0.8,1.8c0.3,1.6,0.8,1.7,1.4,1.6
		c0.4-0.1,1-0.7,1.4-1.1C27,32.5,27,33.4,26.9,34.1z M27.2,24.8c0-0.4,0.1-1.2,0.4-1.5c0.5-0.4,1.5-0.4,2.2-0.2
		c0.7,0.2,2.7,0.8,4,1.2c0,0.1,0,0.2,0,0.3c-2,0-4.3,0.1-6.6,0.3C27.2,24.9,27.2,24.9,27.2,24.8z M33.2,35.3
		c-0.3,0.7-1.3,0.8-1.9,0.8c-0.6,0-1-0.1-1.5-0.4c-0.5-0.4-0.8-1.1-1.2-2.1c-0.2-0.4-0.4-1-0.5-1.6c0.6,0.5,1.3,1,1.7,1
		c0.7,0,1.2,0,1-1.7c-0.1-1.7-0.7-2-1.2-1.9c-0.4,0.1-1.1,0.6-1.7,0.9c0.4-0.8,0.8-2.1,0.7-3c-0.2-0.9-0.8-1.1-1.4-1.1
		c0-0.2,0-0.4-0.1-0.5c1.9-0.2,4-0.3,6.6-0.3c0,0.3,0.1,0.7,0.1,1c-0.5,0.1-0.9,0.5-0.9,1.3c0,0.8,0.6,1.9,1.1,2.7
		c-0.6-0.4-1.4-0.9-1.8-0.9c-0.7,0-1.1,0.1-0.9,1.8c0.2,1.7,0.7,1.9,1.3,1.7c0.4-0.1,1.2-0.7,1.7-1.2C34,32.9,33.4,34.8,33.2,35.3z
		 M32,19.3c-0.1-0.2-0.1-0.5-0.1-0.7c0-0.2,0-0.3,0-0.5h2.3v-2.4c0.2,0,0.4-0.1,0.6-0.1c0.2,0,0.4,0,0.6,0.1v2.4h2.3
		c0,0.2,0,0.3,0,0.5c0,0.2,0,0.5-0.1,0.7H32z M42.4,26.3c-0.5,0-1.2,0.2-1.4,1.1c-0.2,0.9,0.3,2.2,0.7,3c-0.6-0.4-1.3-0.8-1.7-0.9
		c-0.5-0.1-1.1,0.2-1.2,1.9c-0.1,1.7,0.3,1.7,1,1.7c0.4,0,1.1-0.6,1.7-1c-0.2,0.6-0.4,1.2-0.5,1.6c-0.4,1-0.7,1.8-1.2,2.1
		c-0.5,0.3-0.9,0.4-1.5,0.4c-0.6,0-1.6,0-1.9-0.8c-0.2-0.5-0.8-2.4-1.1-3.5c0.5,0.5,1.3,1.1,1.7,1.2c0.6,0.1,1.1,0,1.3-1.7
		c0.2-1.7-0.2-1.8-0.9-1.8c-0.4,0-1.2,0.5-1.8,0.9c0.5-0.8,1.1-1.9,1.1-2.7c0-0.8-0.5-1.1-0.9-1.3c0-0.3,0.1-0.6,0.1-1
		c2.6,0,4.8,0.1,6.6,0.3C42.4,25.9,42.4,26.1,42.4,26.3z M42.5,24.8c0,0,0,0.1,0,0.1c-2.4-0.2-4.7-0.3-6.6-0.3c0-0.1,0-0.2,0-0.3
		c1.3-0.4,3.3-1,4-1.2c0.7-0.2,1.7-0.2,2.2,0.2C42.4,23.6,42.5,24.4,42.5,24.8z M49.3,30.6c-0.4-0.4-1-0.8-1.5-1
		c-0.6-0.2-1.2-0.1-1.7,1.6c-0.5,1.7,0,1.9,0.7,2c0.4,0.1,1.3-0.4,2-0.8c0,0.1-0.1,0.2-0.1,0.3c-0.2,0.5-0.5,1-0.7,1.3
		c-0.6,1-1,1.4-1.3,1.7c-0.3,0.3-1,0.5-1.8,0.5s-1.3-0.2-1.5-0.4c-0.2-0.2-0.4-0.3-0.6-1.6c-0.1-0.7-0.1-1.6-0.1-2.2
		c0.5,0.5,1.1,1,1.4,1.1c0.6,0.2,1.1,0.1,1.4-1.6c0.3-1.6-0.1-1.8-0.8-1.8c-0.4,0-1.3,0.6-1.9,0.9c0.6-0.7,1.5-1.8,1.6-2.6
		c0.1-0.8-0.3-1.2-0.8-1.4c0-0.2,0-0.4,0.1-0.7c2.6,0.3,4.5,0.6,5.7,0.9c-0.4,0.1-0.8,0.4-0.9,1.1C48.5,28.7,48.9,29.8,49.3,30.6z
		 M50.9,26.4c-0.6-0.2-1.6-0.5-3-0.7c-1.3-0.2-2.6-0.4-4-0.6c0-0.1,0-0.3,0-0.4c0.9-0.2,2.6-0.5,3.8-0.7c2.2-0.4,2.6,0.3,2.8,0.5
		C50.9,25,51,25.7,50.9,26.4z"/>
</g>
<g>
	<path d="M82.1,42.3h4.8c3.4,0,5.9,1.5,5.9,6.6c0,6.3-2.9,7.8-6.5,7.8h-4.2V42.3z M85.2,54.4h1.3c2.1,0,3.1-1.4,3.1-5.2
		c0-3.4-0.9-4.6-2.8-4.6h-1.5V54.4z"/>
	<path d="M96.4,41.5c1.1,0,1.7,0.6,1.7,1.7c0,1.1-0.8,1.7-1.7,1.7c-1,0-1.7-0.6-1.7-1.7C94.7,42,95.4,41.5,96.4,41.5z M97.9,46v10.7
		h-3V46H97.9z"/>
	<path d="M106.9,46.4l-0.7,2.6c-0.3-0.3-0.6-0.4-1.2-0.4c-0.6,0-1.3,0.4-1.7,0.7v7.4h-3.1V46h2.7l0.2,1.1c0.5-0.6,1.2-1.3,2.3-1.3
		C106.1,45.8,106.5,46.1,106.9,46.4z"/>
	<path d="M110.1,51.9c0.1,1.8,1,2.6,2.3,2.6c1,0,1.9-0.3,2.9-0.8l0.1,2.5c-0.7,0.4-2,0.7-3.3,0.7c-4,0-5-2.6-5-5.7
		c0-3.8,2-5.4,4.5-5.4c2.9,0,4.1,1.9,4.1,5v1.1H110.1z M111.5,47.9c-0.9,0-1.4,0.9-1.4,2.2h2.7C112.8,48.6,112.3,47.9,111.5,47.9z"
		/>
	<path d="M126.8,46.3l-2.8,4.2l3.4,6.2H124l-2.6-4.7h-1v4.7h-3.1V42.3h3.1v7.2h0.9l2.3-3.5L126.8,46.3z"/>
	<path d="M131.9,48.1v5c0,0.6,0.1,1.3,0.9,1.3c0.4,0,0.8-0.1,1.3-0.3l0.4,2.3c-0.7,0.3-1.7,0.5-2.6,0.5c-2.2,0-3-1.3-3-3.1v-5.7
		h-1.4V46h1.4v-1.8l3.1-1.4V46h2.3v2.1H131.9z"/>
	<path d="M135.2,51.4c0-3.1,1.5-5.6,4.8-5.6c3.6,0,4.6,2.5,4.6,5.4c0,2.9-1.3,5.7-4.8,5.7C136.3,56.9,135.2,54.1,135.2,51.4z
		 M141.4,51.3c0-1.7-0.2-3.2-1.5-3.2c-1.4,0-1.6,1.5-1.6,3.2c0,1.9,0.3,3.2,1.6,3.2C141.1,54.6,141.4,53.1,141.4,51.3z"/>
	<path d="M153,46.4l-0.7,2.6c-0.3-0.3-0.6-0.4-1.2-0.4c-0.6,0-1.3,0.4-1.7,0.7v7.4h-3.1V46h2.7l0.2,1.1c0.5-0.6,1.2-1.3,2.3-1.3
		C152.3,45.8,152.7,46.1,153,46.4z"/>
	<path d="M153.9,46.3c0.6-0.2,2.1-0.6,3.5-0.6c2.1,0,3.7,0.5,4.2,2.7c0.1,0.6,0.2,1.3,0.2,2.1V54c0,0.5,0.1,0.8,0.6,0.8
		c0.1,0,0.3,0,0.5-0.1l0.2,1.8c-0.6,0.2-1.3,0.4-1.9,0.4c-1,0-1.6-0.4-1.8-1.2c-0.6,0.6-1.6,1.2-3,1.2c-2.2,0-3.2-1.5-3.2-3.4
		c0-2.4,1.4-3.7,4.1-3.7c0.6,0,1,0.1,1.6,0.2v-0.3c0-1.2-0.8-1.6-1.9-1.6c-1,0-1.9,0.2-2.6,0.5L153.9,46.3z M158.9,51.8
		c-0.2-0.1-0.6-0.2-1.1-0.2c-1,0-1.7,0.5-1.7,1.6c0,0.9,0.4,1.5,1.2,1.5c0.6,0,1.3-0.4,1.6-0.8V51.8z"/>
	<path d="M167.6,48.1v5c0,0.6,0.1,1.3,0.9,1.3c0.4,0,0.8-0.1,1.3-0.3l0.4,2.3c-0.7,0.3-1.7,0.5-2.6,0.5c-2.2,0-3-1.3-3-3.1v-5.7
		h-1.4V46h1.4v-1.8l3.1-1.4V46h2.3v2.1H167.6z"/>
	<path d="M173.9,51.9c0.1,1.8,1,2.6,2.3,2.6c1,0,1.9-0.3,2.9-0.8l0.1,2.5c-0.7,0.4-2,0.7-3.3,0.7c-4,0-5-2.6-5-5.7
		c0-3.8,2-5.4,4.5-5.4c2.9,0,4.1,1.9,4.1,5v1.1H173.9z M175.3,47.9c-0.9,0-1.4,0.9-1.4,2.2h2.7C176.6,48.6,176.1,47.9,175.3,47.9z"
		/>
	<path d="M184.5,48.1v5c0,0.6,0.1,1.3,0.9,1.3c0.4,0,0.8-0.1,1.3-0.3l0.4,2.3c-0.7,0.3-1.7,0.5-2.6,0.5c-2.2,0-3-1.3-3-3.1v-5.7
		h-1.4V46h1.4v-1.8l3.1-1.4V46h2.3v2.1H184.5z"/>
	<path d="M196.3,48.1v8.6h-3v-8.6h-1.5V46h1.5c0-0.6,0-1.1,0.2-1.6c0.4-1.5,1.6-2.4,3.7-2.4c0.9,0,1.9,0.1,2.5,0.4l-0.2,2.1
		c-0.4-0.1-1.3-0.3-1.9-0.3c-1,0-1.3,0.6-1.3,1.5V46h2.5v2.1H196.3z"/>
	<path d="M199.4,51.4c0-3.1,1.5-5.6,4.8-5.6c3.6,0,4.6,2.5,4.6,5.4c0,2.9-1.3,5.7-4.8,5.7C200.5,56.9,199.4,54.1,199.4,51.4z
		 M205.7,51.3c0-1.7-0.2-3.2-1.5-3.2c-1.4,0-1.6,1.5-1.6,3.2c0,1.9,0.3,3.2,1.6,3.2C205.4,54.6,205.7,53.1,205.7,51.3z"/>
	<path d="M217.3,46.4l-0.7,2.6c-0.3-0.3-0.6-0.4-1.2-0.4c-0.6,0-1.3,0.4-1.7,0.7v7.4h-3.1V46h2.7l0.2,1.1c0.5-0.6,1.2-1.3,2.3-1.3
		C216.5,45.8,217,46.1,217.3,46.4z"/>
	<path d="M231.3,46.9c0.9-0.7,2-1.1,3.2-1.1c1.9,0,2.8,0.9,3,2.3c0.1,0.4,0.1,1,0.1,1.3v7.3h-3v-6.9c0-0.2,0-0.5,0-0.7
		c-0.1-0.7-0.5-0.8-1-0.8c-0.6,0-1.2,0.3-1.6,0.6v7.8h-3v-6.9c0-0.2,0-0.5,0-0.7c-0.1-0.6-0.5-0.8-1-0.8c-0.7,0-1.4,0.4-1.8,0.7v7.7
		h-3.1V46h2.7l0.1,0.9c0.7-0.6,1.8-1.1,3-1.1C230,45.8,230.8,46.2,231.3,46.9z"/>
	<path d="M241.5,41.5c1.1,0,1.7,0.6,1.7,1.7c0,1.1-0.8,1.7-1.7,1.7c-1,0-1.7-0.6-1.7-1.7C239.8,42,240.5,41.5,241.5,41.5z M243,46
		v10.7h-3V46H243z"/>
	<path d="M248.2,46.9c0.7-0.6,1.8-1.1,3-1.1c1.9,0,2.8,0.9,3,2.3c0.1,0.4,0.1,1,0.1,1.3v7.3h-3v-6.9c0-0.2,0-0.5,0-0.7
		c-0.1-0.6-0.5-0.8-1.1-0.8c-0.7,0-1.3,0.4-1.7,0.7v7.7h-3.1V46h2.7L248.2,46.9z"/>
	<path d="M259.3,51.9c0.1,1.8,1,2.6,2.3,2.6c1,0,1.9-0.3,2.9-0.8l0.1,2.5c-0.7,0.4-2,0.7-3.3,0.7c-4,0-5-2.6-5-5.7
		c0-3.8,2-5.4,4.5-5.4c2.9,0,4.1,1.9,4.1,5v1.1H259.3z M260.7,47.9c-0.9,0-1.4,0.9-1.4,2.2h2.7C262,48.6,261.5,47.9,260.7,47.9z"/>
	<path d="M273.2,46.4l-0.7,2.6c-0.3-0.3-0.6-0.4-1.2-0.4c-0.6,0-1.3,0.4-1.7,0.7v7.4h-3.1V46h2.7l0.2,1.1c0.5-0.6,1.2-1.3,2.3-1.3
		C272.4,45.8,272.8,46.1,273.2,46.4z"/>
	<path d="M274,46.3c0.6-0.2,2.1-0.6,3.5-0.6c2.1,0,3.7,0.5,4.2,2.7c0.1,0.6,0.2,1.3,0.2,2.1V54c0,0.5,0.1,0.8,0.6,0.8
		c0.1,0,0.3,0,0.5-0.1l0.2,1.8c-0.6,0.2-1.3,0.4-1.9,0.4c-1,0-1.6-0.4-1.8-1.2c-0.6,0.6-1.6,1.2-3,1.2c-2.2,0-3.2-1.5-3.2-3.4
		c0-2.4,1.4-3.7,4.1-3.7c0.6,0,1,0.1,1.6,0.2v-0.3c0-1.2-0.8-1.6-1.9-1.6c-1,0-1.9,0.2-2.6,0.5L274,46.3z M279,51.8
		c-0.2-0.1-0.6-0.2-1.1-0.2c-1,0-1.7,0.5-1.7,1.6c0,0.9,0.4,1.5,1.2,1.5c0.6,0,1.3-0.4,1.6-0.8V51.8z"/>
	<path d="M284.5,42.3h3v10.9c0,0.8,0.3,1.2,0.9,1.2c0.4,0,0.7-0.1,1.3-0.3l0.4,2.3c-0.8,0.4-1.7,0.5-2.5,0.5c-2.4,0-3-1.3-3-3.2
		V42.3z"/>
	<path d="M294.8,48.1v8.6h-3v-8.6h-1.5V46h1.5c0-0.6,0-1.1,0.2-1.6c0.4-1.5,1.6-2.4,3.7-2.4c0.9,0,1.9,0.1,2.5,0.4l-0.2,2.1
		c-0.4-0.1-1.3-0.3-1.9-0.3c-1,0-1.3,0.6-1.3,1.5V46h2.5v2.1H294.8z"/>
	<path d="M297.9,51.4c0-3.1,1.5-5.6,4.8-5.6c3.6,0,4.6,2.5,4.6,5.4c0,2.9-1.3,5.7-4.8,5.7S297.9,54.1,297.9,51.4z M304.1,51.3
		c0-1.7-0.2-3.2-1.5-3.2c-1.4,0-1.6,1.5-1.6,3.2c0,1.9,0.3,3.2,1.6,3.2C303.8,54.6,304.1,53.1,304.1,51.3z"/>
	<path d="M315.7,46.4l-0.7,2.6c-0.3-0.3-0.6-0.4-1.2-0.4c-0.6,0-1.3,0.4-1.7,0.7v7.4h-3.1V46h2.7l0.2,1.1c0.5-0.6,1.2-1.3,2.3-1.3
		C315,45.8,315.4,46.1,315.7,46.4z"/>
	<path d="M326.4,46.3l-3.1,10.4h-3.7l-3.3-10.4l3.2-0.3l1.4,5.6c0.2,0.9,0.4,1.9,0.5,2.7h0.1c0.1-0.9,0.3-1.9,0.5-2.6l1.4-5.7
		L326.4,46.3z"/>
	<path d="M327.5,46.3c0.6-0.2,2.1-0.6,3.5-0.6c2.1,0,3.7,0.5,4.2,2.7c0.1,0.6,0.2,1.3,0.2,2.1V54c0,0.5,0.1,0.8,0.6,0.8
		c0.1,0,0.3,0,0.5-0.1l0.2,1.8c-0.6,0.2-1.3,0.4-1.9,0.4c-1,0-1.6-0.4-1.8-1.2c-0.6,0.6-1.6,1.2-3,1.2c-2.2,0-3.2-1.5-3.2-3.4
		c0-2.4,1.4-3.7,4.1-3.7c0.6,0,1,0.1,1.6,0.2v-0.3c0-1.2-0.8-1.6-1.9-1.6c-1,0-1.9,0.2-2.6,0.5L327.5,46.3z M332.5,51.8
		c-0.2-0.1-0.6-0.2-1.1-0.2c-1,0-1.7,0.5-1.7,1.6c0,0.9,0.4,1.5,1.2,1.5c0.6,0,1.3-0.4,1.6-0.8V51.8z"/>
	<path d="M338,42.3h3v10.9c0,0.8,0.3,1.2,0.9,1.2c0.4,0,0.7-0.1,1.3-0.3l0.4,2.3c-0.8,0.4-1.7,0.5-2.5,0.5c-2.4,0-3-1.3-3-3.2V42.3z
		"/>
	<path d="M347.8,48.1v5c0,0.6,0.1,1.3,0.9,1.3c0.4,0,0.8-0.1,1.3-0.3l0.4,2.3c-0.7,0.3-1.7,0.5-2.6,0.5c-2.2,0-3-1.3-3-3.1v-5.7
		h-1.4V46h1.4v-1.8l3.1-1.4V46h2.3v2.1H347.8z"/>
	<path d="M354.7,46.9c0.7-0.6,1.8-1.1,3-1.1c1.9,0,2.8,0.9,3,2.3c0.1,0.4,0.1,1,0.1,1.3v7.3h-3v-6.9c0-0.2,0-0.5,0-0.7
		c-0.1-0.6-0.5-0.8-1.1-0.8c-0.7,0-1.3,0.4-1.7,0.7v7.7h-3.1V46h2.7L354.7,46.9z"/>
	<path d="M364.7,41.5c1.1,0,1.7,0.6,1.7,1.7c0,1.1-0.8,1.7-1.7,1.7c-1,0-1.7-0.6-1.7-1.7C363,42,363.8,41.5,364.7,41.5z M366.3,46
		v10.7h-3V46H366.3z"/>
	<path d="M371.5,46.9c0.7-0.6,1.8-1.1,3-1.1c1.9,0,2.8,0.9,3,2.3c0.1,0.4,0.1,1,0.1,1.3v7.3h-3v-6.9c0-0.2,0-0.5,0-0.7
		c-0.1-0.6-0.5-0.8-1.1-0.8c-0.7,0-1.3,0.4-1.7,0.7v7.7h-3.1V46h2.7L371.5,46.9z"/>
	<path d="M386,46h2.7v10.6c0,2.4-1,4.6-4.5,4.6c-1.5,0-3.1-0.4-3.9-0.8l0.4-2.5c0.9,0.5,2.2,0.8,3.1,0.8c1.2,0,1.9-0.7,1.9-2.2v-0.7
		c-0.4,0.5-1.2,0.9-2.4,0.9c-2.3,0-3.9-1.7-3.9-5.4c0-2.8,1.2-5.6,4-5.6c1.2,0,1.9,0.5,2.4,0.9L386,46z M385.7,48.6
		c-0.4-0.3-0.9-0.5-1.3-0.5c-0.9,0-1.7,0.6-1.7,3.3c0,2.1,0.6,3,1.7,3c0.5,0,1-0.3,1.4-0.6V48.6z"/>
</g>
<g>
	<path d="M89.5,72.8c0.9-0.8,2.1-1.4,3.3-1.4c1.6,0,2.5,0.7,2.8,2.1c0.1,0.3,0.1,0.9,0.1,1.3v7.4h-1.3V75c0-0.3,0-0.8-0.1-1.1
		c-0.2-0.9-0.7-1.3-1.7-1.3c-1,0-2,0.6-2.8,1.3c0,0.3,0,0.7,0,1.1v7.2h-1.3V75c0-0.3,0-0.8-0.1-1.1c-0.1-0.9-0.6-1.3-1.6-1.3
		c-1.3,0-2.4,0.8-3.2,1.6v8h-1.3V71.6h1.3v1.3c1-0.8,2.1-1.5,3.5-1.5C88.4,71.4,89.2,71.9,89.5,72.8z"/>
	<path d="M99.9,77c0,2.6,0.9,4.2,3,4.2c1.1,0,2.1-0.4,2.8-0.8l0.1,1.2c-0.6,0.3-1.8,0.7-3.1,0.7c-3.3,0-4.2-2.6-4.2-5.6
		c0-3.9,1.6-5.4,4-5.4c2.5,0,3.5,1.8,3.5,4.9V77H99.9z M102.4,72.6c-1.8,0-2.5,1.8-2.5,3.4h4.7C104.6,73.7,103.8,72.6,102.4,72.6z"
		/>
	<path d="M114.5,72.3v-4.5h1.3v14.4h-1.3v-1.1c-0.7,0.7-1.6,1.3-2.8,1.3c-2.1,0-3.6-1.7-3.6-5.3c0-2.6,1-5.7,3.9-5.7
		C113,71.4,113.7,71.8,114.5,72.3z M111.9,81.2c1.1,0,2-0.7,2.5-1.4v-6.2c-0.7-0.6-1.5-1-2.4-1c-1.4,0-2.6,1-2.6,4.5
		C109.5,79.8,110.5,81.2,111.9,81.2z"/>
	<path d="M124.5,82.2V67.8h4.2c2.7,0,4.4,1.1,4.4,3.3c0,1.8-1.1,3-2.2,3.5c1.8,0.4,2.8,1.7,2.8,3.3c0,2.7-1.9,4.2-4.8,4.2H124.5z
		 M125.8,69v5.1h2.7c2.1,0,3.1-1.3,3.1-2.8c0-1.7-1-2.3-3.2-2.3H125.8z M125.8,75.3V81h3.1c2.3,0,3.2-1.3,3.2-3c0-1.6-1-2.7-3.1-2.7
		H125.8z"/>
	<path d="M137,77c0,2.6,0.9,4.2,3,4.2c1.1,0,2.1-0.4,2.8-0.8l0.1,1.2c-0.6,0.3-1.8,0.7-3.1,0.7c-3.3,0-4.2-2.6-4.2-5.6
		c0-3.9,1.6-5.4,4-5.4c2.5,0,3.5,1.8,3.5,4.9V77H137z M139.5,72.6c-1.8,0-2.5,1.8-2.5,3.4h4.7C141.7,73.7,140.9,72.6,139.5,72.6z"/>
	<path d="M151.6,73l-1.1,0.6c-0.3-0.6-0.5-1-1.3-1c-0.8,0-1.6,0.8-2.1,1.4v8.1h-1.3V71.6h1.3v1.2c0.7-0.7,1.5-1.4,2.6-1.4
		C150.8,71.4,151.4,72.2,151.6,73z"/>
	<path d="M159.2,72.3v-0.7h1.3v10.3c0,2.6-0.6,4.7-3.9,4.7c-1.4,0-2.7-0.5-3.3-0.8l0.2-1.3c0.6,0.4,2,0.9,3.2,0.9
		c2.2,0,2.5-1.8,2.5-3.7v-0.6c-0.7,0.7-1.6,1.3-2.8,1.3c-2.1,0-3.6-1.7-3.6-5.3c0-2.6,1-5.7,3.9-5.7
		C157.8,71.4,158.5,71.8,159.2,72.3z M156.7,81.2c1.1,0,2-0.7,2.5-1.4v-6.2c-0.7-0.6-1.5-1-2.4-1c-1.4,0-2.6,1-2.6,4.5
		C154.2,79.8,155.3,81.2,156.7,81.2z"/>
	<path d="M171.2,72.8c0.9-0.8,2.1-1.4,3.3-1.4c1.6,0,2.5,0.7,2.8,2.1c0.1,0.3,0.1,0.9,0.1,1.3v7.4h-1.3V75c0-0.3,0-0.8-0.1-1.1
		c-0.2-0.9-0.7-1.3-1.7-1.3c-1,0-2,0.6-2.8,1.3c0,0.3,0,0.7,0,1.1v7.2h-1.3V75c0-0.3,0-0.8-0.1-1.1c-0.1-0.9-0.6-1.3-1.6-1.3
		c-1.3,0-2.4,0.8-3.2,1.6v8H164V71.6h1.3v1.3c1-0.8,2.1-1.5,3.5-1.5C170.1,71.4,170.9,71.9,171.2,72.8z"/>
	<path d="M181.6,77c0,2.6,0.9,4.2,3,4.2c1.1,0,2.1-0.4,2.8-0.8l0.1,1.2c-0.6,0.3-1.8,0.7-3.1,0.7c-3.3,0-4.2-2.6-4.2-5.6
		c0-3.9,1.6-5.4,4-5.4c2.5,0,3.5,1.8,3.5,4.9V77H181.6z M184.1,72.6c-1.8,0-2.5,1.8-2.5,3.4h4.7C186.3,73.7,185.5,72.6,184.1,72.6z"
		/>
	<path d="M189.8,80.1c0.5,0.4,1.7,1.2,2.9,1.2c1.2,0,2.2-0.5,2.2-1.7c0-2.9-5.3-1.2-5.3-5.2c0-1.9,1.6-2.9,3.4-2.9
		c2.1,0,3.1,1.3,3.3,2.4l-1.1,0.4c-0.3-1.2-1.2-1.7-2.2-1.7c-1,0-2,0.5-2,1.7c0,2.9,5.3,1.3,5.3,5c0,1.7-1.2,3.1-3.6,3.1
		c-1.4,0-2.8-0.7-3.2-1.1L189.8,80.1z"/>
	<path d="M200.3,72.7v6.5c0,1.1,0.1,2,1.1,2c0.5,0,1-0.2,1.5-0.4l0.1,1.1c-0.4,0.2-1.2,0.5-1.9,0.5c-1.6,0-2.2-1-2.2-2.6v-7.1h-1.4
		v-1.1h1.4v-1.7l1.3-0.8v2.5h2.8v1.1H200.3z"/>
	<path d="M205.9,77c0,2.6,0.9,4.2,3,4.2c1.1,0,2.1-0.4,2.8-0.8l0.1,1.2c-0.6,0.3-1.8,0.7-3.1,0.7c-3.3,0-4.2-2.6-4.2-5.6
		c0-3.9,1.6-5.4,4-5.4c2.5,0,3.5,1.8,3.5,4.9V77H205.9z M208.4,72.6c-1.8,0-2.5,1.8-2.5,3.4h4.7C210.6,73.7,209.8,72.6,208.4,72.6z"
		/>
	<path d="M220.6,73l-1.1,0.6c-0.3-0.6-0.5-1-1.3-1c-0.8,0-1.6,0.8-2.1,1.4v8.1h-1.3V71.6h1.3v1.2c0.7-0.7,1.5-1.4,2.6-1.4
		C219.7,71.4,220.3,72.2,220.6,73z"/>
	<path d="M223,77c0,2.6,0.9,4.2,3,4.2c1.1,0,2.1-0.4,2.8-0.8l0.1,1.2c-0.6,0.3-1.8,0.7-3.1,0.7c-3.3,0-4.2-2.6-4.2-5.6
		c0-3.9,1.6-5.4,4-5.4c2.5,0,3.5,1.8,3.5,4.9V77H223z M225.5,72.6c-1.8,0-2.5,1.8-2.5,3.4h4.7C227.7,73.7,226.9,72.6,225.5,72.6z"/>
	<path d="M239.4,73.5c0.1,0.3,0.1,0.9,0.1,1.3v7.4h-1.3V75c0-0.3,0-0.8-0.1-1.1c-0.2-0.9-0.7-1.3-1.8-1.3c-1.2,0-2.3,0.8-3.1,1.5v8
		h-1.3V71.6h1.3v1.3c0.9-0.8,2.1-1.5,3.5-1.5C238.2,71.4,239.1,72.1,239.4,73.5z"/>
	<path d="M249.3,72.7v9.5H248v-9.5h-1.7v-1.1h1.7v-0.9c0-1.9,1-3.1,3.2-3.1c0.6,0,1.4,0.1,1.8,0.2l-0.1,1.1c-0.5-0.1-1-0.2-1.7-0.2
		c-1.3,0-1.9,0.6-1.9,2.2v0.8h2.7v1.1H249.3z"/>
	<path d="M252.8,77c0-3,1.3-5.6,4.2-5.6c3.1,0,3.9,2.6,3.9,5.4c0,2.7-1,5.7-4.1,5.7C253.6,82.4,252.8,79.5,252.8,77z M259.5,76.8
		c0-1.7-0.3-4.3-2.6-4.3c-2.3,0-2.7,2.8-2.7,4.4c0,2.1,0.6,4.3,2.6,4.3C259,81.3,259.5,78.8,259.5,76.8z"/>
	<path d="M269.5,73l-1.1,0.6c-0.3-0.6-0.5-1-1.3-1c-0.8,0-1.6,0.8-2.1,1.4v8.1h-1.3V71.6h1.3v1.2c0.7-0.7,1.5-1.4,2.6-1.4
		C268.7,71.4,269.3,72.2,269.5,73z"/>
	<path d="M276.1,79.8c0.8,0.7,1.9,1.4,3.6,1.4c1.6,0,3-0.7,3-2.7c0-2.2-1.4-2.7-3.4-3.3c-1.7-0.6-3.4-1.2-3.4-3.9
		c0-2.4,1.9-3.8,4.3-3.8c2.8,0,4,1.8,4.1,3.2l-1.3,0.4c-0.4-1.5-1.5-2.3-2.9-2.3c-1.4,0-2.7,0.7-2.7,2.5c0,1.9,1.3,2.3,3,2.8
		c1.9,0.6,3.9,1.3,3.9,4.2c0,2.4-1.5,4.1-4.5,4.1c-2.1,0-3.6-0.9-4.2-1.4L276.1,79.8z"/>
	<path d="M293.8,71.8l-3.4,10.4h-1.8l-3.3-10.4l1.4-0.1l2.9,9.2l2.9-9.2L293.8,71.8z"/>
	<path d="M295.9,71.8c0.7-0.2,2-0.4,3-0.4c2.2,0,3.3,1,3.3,3.3v5.7c0,0.6,0.2,0.9,0.7,0.9c0.3,0,0.5-0.1,0.9-0.2l0.1,1.1
		c-0.4,0.1-0.8,0.3-1.3,0.3c-1,0-1.5-0.6-1.6-1.3c-0.9,0.8-1.9,1.3-3,1.3c-2.1,0-3-1.5-3-3.3c0-2.6,1.6-3.6,4.1-3.6
		c0.6,0,1.2,0.1,1.8,0.2v-0.8c0-1.6-0.6-2.4-2.4-2.4c-0.8,0-1.8,0.2-2.5,0.4L295.9,71.8z M301,76.7c-0.6-0.1-1.1-0.2-1.6-0.2
		c-1.9,0-2.9,0.7-2.9,2.6c0,1.1,0.6,2.1,1.9,2.1c1,0,1.9-0.5,2.6-1.2L301,76.7z"/>
	<path d="M305.7,67.8h1.3v11.7c0,1.2,0.3,1.8,1.2,1.8c0.5,0,1.1-0.2,1.6-0.4l0.2,1.1c-0.5,0.3-1.4,0.5-2,0.5c-1.8,0-2.3-1.1-2.3-2.7
		V67.8z"/>
	<path d="M316.6,71.4c1.9,0,3.2,1.5,3.2,4.6c0,3.7-1.2,6.3-4.4,6.3c-1.3,0-2.5-0.4-3.3-0.9V67.8h1.3v5
		C314.2,72.2,315.4,71.4,316.6,71.4z M316.2,72.7c-1,0-2.1,0.7-2.8,1.2v6.8c0.6,0.3,1.3,0.5,2,0.5c2.3,0,2.9-2.3,2.9-4.7
		C318.3,73.4,317.4,72.7,316.2,72.7z"/>
	<path d="M322.6,71.8c0.7-0.2,2-0.4,3-0.4c2.2,0,3.3,1,3.3,3.3v5.7c0,0.6,0.2,0.9,0.7,0.9c0.3,0,0.5-0.1,0.9-0.2l0.1,1.1
		c-0.4,0.1-0.8,0.3-1.3,0.3c-1,0-1.5-0.6-1.6-1.3c-0.9,0.8-1.9,1.3-3,1.3c-2.1,0-3-1.5-3-3.3c0-2.6,1.6-3.6,4.1-3.6
		c0.6,0,1.2,0.1,1.8,0.2v-0.8c0-1.6-0.6-2.4-2.4-2.4c-0.8,0-1.8,0.2-2.5,0.4L322.6,71.8z M327.7,76.7c-0.6-0.1-1.1-0.2-1.6-0.2
		c-1.9,0-2.9,0.7-2.9,2.6c0,1.1,0.6,2.1,1.9,2.1c1,0,1.9-0.5,2.6-1.2L327.7,76.7z"/>
	<path d="M338.6,73l-1.1,0.6c-0.3-0.6-0.5-1-1.3-1c-0.8,0-1.6,0.8-2.1,1.4v8.1h-1.3V71.6h1.3v1.2c0.7-0.7,1.5-1.4,2.6-1.4
		C337.7,71.4,338.3,72.2,338.6,73z"/>
	<path d="M346.2,72.3v-4.5h1.3v14.4h-1.3v-1.1c-0.7,0.7-1.6,1.3-2.8,1.3c-2.1,0-3.6-1.7-3.6-5.3c0-2.6,1-5.7,3.9-5.7
		C344.7,71.4,345.4,71.8,346.2,72.3z M343.7,81.2c1.1,0,2-0.7,2.5-1.4v-6.2c-0.7-0.6-1.5-1-2.4-1c-1.4,0-2.6,1-2.6,4.5
		C341.2,79.8,342.2,81.2,343.7,81.2z"/>
</g>
</svg>
