<svg width="147" height="173" xmlns="http://www.w3.org/2000/svg" style="vector-effect: non-scaling-stroke;" stroke="null">
 <!-- Created with Method Draw - http://github.com/duopixel/Method-Draw/ -->

 <g stroke="null">
  <title stroke="null">background</title>
  <rect stroke="null" fill="#fff" id="canvas_background" height="175" width="149" y="-1" x="-1"/>
  <g style="vector-effect: non-scaling-stroke;" stroke="null" display="none" overflow="visible" y="0" x="0" height="100%" width="100%" id="canvasGrid">
   <rect fill="url(#gridpattern)" stroke-width="0" y="1" x="1" height="400" width="580"/>
  </g>
 </g>
 <g stroke="null">
  <title stroke="null">Layer 1</title>
  <g stroke="null" id="svg_140">
   <rect stroke="null" transform="matrix(2.1346448303236554,0,0,2.1346448303236554,-4546.103080357294,-3319.2222573640197) " id="svg_75" height="82.5" width="69.7" fill="#BAA87A" y="1554.929489" x="2129.738254"/>
   <g stroke="null" transform="matrix(2.1346448303236554,0,0,2.1346448303236554,-4546.103080357294,-3319.2222573640197) " id="svg_76">
    <path stroke="null" id="svg_77" d="m2182.238329,1609.529452c0,0 -0.6,-3.8 -3,-6.9c1.2,-1.4 1.2,-1.5 1.2,-1.5s-0.4,-0.5 -1.3,-1.4c-0.9,-0.9 -1.4,-1.2 -1.4,-1.2s-0.9,0.6 -1.6,1.2c-1.9,-1.8 -4.3,-2.8 -4.3,-2.8s-0.5,0.2 -1.4,1.1c-1.1,1 -1.6,1.7 -1.6,1.7s1.1,2 3.1,4.2c-2.2,2.2 -5,5.2 -7.5,7.6c-2.7,-2.7 -5.4,-5.4 -7.8,-7.7c1.5,-1.7 2.9,-3.6 2.9,-3.6s-0.4,-0.7 -1.4,-1.8c-1,-1.1 -1.6,-1.3 -1.6,-1.3s-2.2,1.2 -4,2.8c-1,-1 -1.3,-1.3 -1.3,-1.3s-0.4,0.3 -1.4,1.2c-0.9,0.9 -1.3,1.4 -1.3,1.4s0.3,0.3 1.2,1.4c-1.7,1.9 -2.8,4.2 -2.8,4.2s0.3,0.6 1.3,1.6c1,1 1.7,1.3 1.7,1.3s1.9,-1.4 3.6,-2.9c2.2,2.5 4.9,5.4 7.5,8.3c-0.4,0.4 -0.7,0.7 -1.1,1.1c-8,8.3 -8,8.6 -8,8.6s0.3,0.7 1.4,1.8c1,1 2,1.5 2,1.5s0.3,0 8.2,-8.3c0.3,-0.3 0.6,-0.6 0.9,-0.9c0.3,0.3 0.6,0.6 0.9,0.9c8,8.3 8.2,8.3 8.2,8.3s0.9,-0.4 2,-1.4c1,-1 1.4,-1.8 1.4,-1.8s0,-0.3 -8,-8.6c-0.3,-0.4 -0.7,-0.7 -1.1,-1.1c2.4,-2.6 5.2,-5.9 7.3,-8.2c3.3,2 7.1,2.5 7.1,2.5z"/>
    <path stroke="null" id="svg_78" d="m2181.638329,1578.529452c-0.8,-1 -1.9,-1.4 -4,-1c-1.2,0.2 -3.1,0.5 -4,0.6c-0.1,-0.4 -0.3,-0.8 -0.7,-1.1c-0.8,-0.7 -1.8,-0.8 -3.2,-0.4c-0.7,0.2 -2.7,0.7 -4.1,1.1c0,-0.5 -0.1,-0.8 -0.2,-1.2c1.4,-0.4 2.4,-1.6 2.4,-3.1c0,-1.6 -1.1,-2.9 -2.5,-3.2l0,-2.3l2.6,0l0,-1.4l-2.6,0l0,-2.5l-1.3,0l0,2.6l-2.6,0l0,1.4l2.6,0l0,2.3c-1.5,0.3 -2.5,1.6 -2.5,3.2c0,1.5 1,2.8 2.4,3.1c-0.1,0.4 -0.2,0.6 -0.2,1.2c-1.3,-0.4 -3.4,-0.9 -4.1,-1.1c-1.4,-0.4 -2.4,-0.2 -3.2,0.4c-0.4,0.3 -0.5,0.7 -0.7,1.1c-0.9,-0.2 -2.8,-0.4 -4,-0.6c-2.1,-0.4 -3.2,0 -4,1c-1,1.3 -0.5,2.9 -0.3,3.3c0.2,0.4 4.4,12.6 4.4,12.6l25.9,0c0,0 4.3,-12.2 4.4,-12.6c0,-0.5 0.5,-2.1 -0.5,-3.4zm-32.8,0.9c0.2,-0.2 0.6,-0.8 2.8,-0.5c1.2,0.2 2.9,0.5 3.8,0.7c0,0.1 0,0.3 0,0.4c-1.4,0.1 -2.7,0.3 -4,0.6c-1.5,0.3 -2.5,0.6 -3,0.7c-0.1,-0.7 0,-1.4 0.4,-1.9zm7.8,9.6c-0.1,1.3 -0.4,1.5 -0.6,1.6c-0.2,0.2 -0.8,0.4 -1.5,0.4c-0.8,0 -1.5,-0.2 -1.8,-0.5c-0.3,-0.3 -0.7,-0.8 -1.3,-1.7c-0.2,-0.3 -0.5,-0.8 -0.7,-1.3c0,-0.1 -0.1,-0.2 -0.1,-0.3c0.7,0.4 1.6,0.9 2,0.8c0.7,-0.1 1.1,-0.3 0.7,-2c-0.5,-1.7 -1,-1.8 -1.7,-1.6c-0.5,0.2 -1.1,0.6 -1.5,1c0.4,-0.8 0.9,-1.9 0.7,-2.7c-0.1,-0.6 -0.5,-0.9 -0.9,-1.1c1.2,-0.3 3,-0.7 5.7,-0.9c0,0.3 0,0.5 0.1,0.7c-0.4,0.2 -0.9,0.6 -0.8,1.4c0.1,0.8 1,1.9 1.6,2.6c-0.6,-0.4 -1.5,-1 -1.9,-0.9c-0.7,0.1 -1.1,0.2 -0.8,1.8c0.3,1.6 0.8,1.7 1.4,1.6c0.4,-0.1 1,-0.7 1.4,-1.1c0.1,0.6 0.1,1.5 0,2.2zm0.3,-9.3c0,-0.4 0.1,-1.2 0.4,-1.5c0.5,-0.4 1.5,-0.4 2.2,-0.2c0.7,0.2 2.7,0.8 4,1.2c0,0.1 0,0.2 0,0.3c-2,0 -4.3,0.1 -6.6,0.3c0,0 0,0 0,-0.1zm6,10.5c-0.3,0.7 -1.3,0.8 -1.9,0.8c-0.6,0 -1,-0.1 -1.5,-0.4c-0.5,-0.4 -0.8,-1.1 -1.2,-2.1c-0.2,-0.4 -0.4,-1 -0.5,-1.6c0.6,0.5 1.3,1 1.7,1c0.7,0 1.2,0 1,-1.7c-0.1,-1.7 -0.7,-2 -1.2,-1.9c-0.4,0.1 -1.1,0.6 -1.7,0.9c0.4,-0.8 0.8,-2.1 0.7,-3c-0.2,-0.9 -0.8,-1.1 -1.4,-1.1c0,-0.2 0,-0.4 -0.1,-0.5c1.9,-0.2 4,-0.3 6.6,-0.3c0,0.3 0.1,0.7 0.1,1c-0.5,0.1 -0.9,0.5 -0.9,1.3c0,0.8 0.6,1.9 1.1,2.7c-0.6,-0.4 -1.4,-0.9 -1.8,-0.9c-0.7,0 -1.1,0.1 -0.9,1.8c0.2,1.7 0.7,1.9 1.3,1.7c0.4,-0.1 1.2,-0.7 1.7,-1.2c-0.3,1.1 -0.9,3 -1.1,3.5zm-1.2,-16c-0.1,-0.2 -0.1,-0.5 -0.1,-0.7c0,-0.2 0,-0.3 0,-0.5l2.3,0l0,-2.4c0.2,0 0.4,-0.1 0.6,-0.1c0.2,0 0.4,0 0.6,0.1l0,2.4l2.3,0c0,0.2 0,0.3 0,0.5c0,0.2 0,0.5 -0.1,0.7l-5.6,0zm10.4,7c-0.5,0 -1.2,0.2 -1.4,1.1c-0.2,0.9 0.3,2.2 0.7,3c-0.6,-0.4 -1.3,-0.8 -1.7,-0.9c-0.5,-0.1 -1.1,0.2 -1.2,1.9c-0.1,1.7 0.3,1.7 1,1.7c0.4,0 1.1,-0.6 1.7,-1c-0.2,0.6 -0.4,1.2 -0.5,1.6c-0.4,1 -0.7,1.8 -1.2,2.1c-0.5,0.3 -0.9,0.4 -1.5,0.4c-0.6,0 -1.6,0 -1.9,-0.8c-0.2,-0.5 -0.8,-2.4 -1.1,-3.5c0.5,0.5 1.3,1.1 1.7,1.2c0.6,0.1 1.1,0 1.3,-1.7c0.2,-1.7 -0.2,-1.8 -0.9,-1.8c-0.4,0 -1.2,0.5 -1.8,0.9c0.5,-0.8 1.1,-1.9 1.1,-2.7c0,-0.8 -0.5,-1.1 -0.9,-1.3c0,-0.3 0.1,-0.6 0.1,-1c2.6,0 4.8,0.1 6.6,0.3c-0.1,0.1 -0.1,0.3 -0.1,0.5zm0.1,-1.5c0,0 0,0.1 0,0.1c-2.4,-0.2 -4.7,-0.3 -6.6,-0.3c0,-0.1 0,-0.2 0,-0.3c1.3,-0.4 3.3,-1 4,-1.2c0.7,-0.2 1.7,-0.2 2.2,0.2c0.3,0.3 0.4,1.1 0.4,1.5zm6.8,5.8c-0.4,-0.4 -1,-0.8 -1.5,-1c-0.6,-0.2 -1.2,-0.1 -1.7,1.6c-0.5,1.7 0,1.9 0.7,2c0.4,0.1 1.3,-0.4 2,-0.8c0,0.1 -0.1,0.2 -0.1,0.3c-0.2,0.5 -0.5,1 -0.7,1.3c-0.6,1 -1,1.4 -1.3,1.7c-0.3,0.3 -1,0.5 -1.8,0.5s-1.3,-0.2 -1.5,-0.4c-0.2,-0.2 -0.4,-0.3 -0.6,-1.6c-0.1,-0.7 -0.1,-1.6 -0.1,-2.2c0.5,0.5 1.1,1 1.4,1.1c0.6,0.2 1.1,0.1 1.4,-1.6c0.3,-1.6 -0.1,-1.8 -0.8,-1.8c-0.4,0 -1.3,0.6 -1.9,0.9c0.6,-0.7 1.5,-1.8 1.6,-2.6c0.1,-0.8 -0.3,-1.2 -0.8,-1.4c0,-0.2 0,-0.4 0.1,-0.7c2.6,0.3 4.5,0.6 5.7,0.9c-0.4,0.1 -0.8,0.4 -0.9,1.1c0,0.8 0.4,1.9 0.8,2.7zm1.6,-4.2c-0.6,-0.2 -1.6,-0.5 -3,-0.7c-1.3,-0.2 -2.6,-0.4 -4,-0.6c0,-0.1 0,-0.3 0,-0.4c0.9,-0.2 2.6,-0.5 3.8,-0.7c2.2,-0.4 2.6,0.3 2.8,0.5c0.4,0.5 0.5,1.2 0.4,1.9z"/>
   </g>
   <g stroke="null" transform="matrix(2.1346448303236554,0,0,2.1346448303236554,-4546.103080357294,-3319.2222573640197) " id="svg_79">
    <path stroke="null" id="svg_80" d="m2211.838329,1597.229452l4.8,0c3.4,0 5.9,1.5 5.9,6.6c0,6.3 -2.9,7.8 -6.5,7.8l-4.2,0l0,-14.4zm3.1,12.1l1.3,0c2.1,0 3.1,-1.4 3.1,-5.2c0,-3.4 -0.9,-4.6 -2.8,-4.6l-1.5,0l0,9.8l-0.1,0z"/>
    <path stroke="null" id="svg_81" d="m2226.138329,1596.429452c1.1,0 1.7,0.6 1.7,1.7c0,1.1 -0.8,1.7 -1.7,1.7c-1,0 -1.7,-0.6 -1.7,-1.7c0,-1.2 0.7,-1.7 1.7,-1.7zm1.5,4.5l0,10.7l-3,0l0,-10.7l3,0z"/>
    <path stroke="null" id="svg_82" d="m2236.638329,1601.329452l-0.7,2.6c-0.3,-0.3 -0.6,-0.4 -1.2,-0.4c-0.6,0 -1.3,0.4 -1.7,0.7l0,7.4l-3.1,0l0,-10.7l2.7,0l0.2,1.1c0.5,-0.6 1.2,-1.3 2.3,-1.3c0.7,0 1.1,0.3 1.5,0.6z"/>
    <path stroke="null" id="svg_83" d="m2239.838329,1606.829452c0.1,1.8 1,2.6 2.3,2.6c1,0 1.9,-0.3 2.9,-0.8l0.1,2.5c-0.7,0.4 -2,0.7 -3.3,0.7c-4,0 -5,-2.6 -5,-5.7c0,-3.8 2,-5.4 4.5,-5.4c2.9,0 4.1,1.9 4.1,5l0,1.1l-5.6,0zm1.4,-4c-0.9,0 -1.4,0.9 -1.4,2.2l2.7,0c0,-1.5 -0.5,-2.2 -1.3,-2.2z"/>
    <path stroke="null" id="svg_84" d="m2256.538329,1601.229452l-2.8,4.2l3.4,6.2l-3.4,0l-2.6,-4.7l-1,0l0,4.7l-3.1,0l0,-14.4l3.1,0l0,7.2l0.9,0l2.3,-3.5l3.2,0.3z"/>
    <path stroke="null" id="svg_85" d="m2261.638329,1603.029452l0,5c0,0.6 0.1,1.3 0.9,1.3c0.4,0 0.8,-0.1 1.3,-0.3l0.4,2.3c-0.7,0.3 -1.7,0.5 -2.6,0.5c-2.2,0 -3,-1.3 -3,-3.1l0,-5.7l-1.4,0l0,-2.1l1.4,0l0,-1.8l3.1,-1.4l0,3.2l2.3,0l0,2.1l-2.4,0z"/>
    <path stroke="null" id="svg_86" d="m2264.938329,1606.329452c0,-3.1 1.5,-5.6 4.8,-5.6c3.6,0 4.6,2.5 4.6,5.4c0,2.9 -1.3,5.7 -4.8,5.7c-3.5,0 -4.6,-2.8 -4.6,-5.5zm6.2,-0.1c0,-1.7 -0.2,-3.2 -1.5,-3.2c-1.4,0 -1.6,1.5 -1.6,3.2c0,1.9 0.3,3.2 1.6,3.2c1.2,0.1 1.5,-1.4 1.5,-3.2z"/>
    <path stroke="null" id="svg_87" d="m2282.738329,1601.329452l-0.7,2.6c-0.3,-0.3 -0.6,-0.4 -1.2,-0.4c-0.6,0 -1.3,0.4 -1.7,0.7l0,7.4l-3.1,0l0,-10.7l2.7,0l0.2,1.1c0.5,-0.6 1.2,-1.3 2.3,-1.3c0.8,0 1.2,0.3 1.5,0.6z"/>
    <path stroke="null" id="svg_88" d="m2283.638329,1601.229452c0.6,-0.2 2.1,-0.6 3.5,-0.6c2.1,0 3.7,0.5 4.2,2.7c0.1,0.6 0.2,1.3 0.2,2.1l0,3.5c0,0.5 0.1,0.8 0.6,0.8c0.1,0 0.3,0 0.5,-0.1l0.2,1.8c-0.6,0.2 -1.3,0.4 -1.9,0.4c-1,0 -1.6,-0.4 -1.8,-1.2c-0.6,0.6 -1.6,1.2 -3,1.2c-2.2,0 -3.2,-1.5 -3.2,-3.4c0,-2.4 1.4,-3.7 4.1,-3.7c0.6,0 1,0.1 1.6,0.2l0,-0.3c0,-1.2 -0.8,-1.6 -1.9,-1.6c-1,0 -1.9,0.2 -2.6,0.5l-0.5,-2.3zm5,5.5c-0.2,-0.1 -0.6,-0.2 -1.1,-0.2c-1,0 -1.7,0.5 -1.7,1.6c0,0.9 0.4,1.5 1.2,1.5c0.6,0 1.3,-0.4 1.6,-0.8l0,-2.1z"/>
    <path stroke="null" id="svg_89" d="m2297.338329,1603.029452l0,5c0,0.6 0.1,1.3 0.9,1.3c0.4,0 0.8,-0.1 1.3,-0.3l0.4,2.3c-0.7,0.3 -1.7,0.5 -2.6,0.5c-2.2,0 -3,-1.3 -3,-3.1l0,-5.7l-1.4,0l0,-2.1l1.4,0l0,-1.8l3.1,-1.4l0,3.2l2.3,0l0,2.1l-2.4,0z"/>
    <path stroke="null" id="svg_90" d="m2303.638329,1606.829452c0.1,1.8 1,2.6 2.3,2.6c1,0 1.9,-0.3 2.9,-0.8l0.1,2.5c-0.7,0.4 -2,0.7 -3.3,0.7c-4,0 -5,-2.6 -5,-5.7c0,-3.8 2,-5.4 4.5,-5.4c2.9,0 4.1,1.9 4.1,5l0,1.1l-5.6,0zm1.4,-4c-0.9,0 -1.4,0.9 -1.4,2.2l2.7,0c0,-1.5 -0.5,-2.2 -1.3,-2.2z"/>
    <path stroke="null" id="svg_91" d="m2314.238329,1603.029452l0,5c0,0.6 0.1,1.3 0.9,1.3c0.4,0 0.8,-0.1 1.3,-0.3l0.4,2.3c-0.7,0.3 -1.7,0.5 -2.6,0.5c-2.2,0 -3,-1.3 -3,-3.1l0,-5.7l-1.4,0l0,-2.1l1.4,0l0,-1.8l3.1,-1.4l0,3.2l2.3,0l0,2.1l-2.4,0z"/>
    <path stroke="null" id="svg_92" d="m2326.038329,1603.029452l0,8.6l-3,0l0,-8.6l-1.5,0l0,-2.1l1.5,0c0,-0.6 0,-1.1 0.2,-1.6c0.4,-1.5 1.6,-2.4 3.7,-2.4c0.9,0 1.9,0.1 2.5,0.4l-0.2,2.1c-0.4,-0.1 -1.3,-0.3 -1.9,-0.3c-1,0 -1.3,0.6 -1.3,1.5l0,0.3l2.5,0l0,2.1l-2.5,0z"/>
    <path stroke="null" id="svg_93" d="m2329.138329,1606.329452c0,-3.1 1.5,-5.6 4.8,-5.6c3.6,0 4.6,2.5 4.6,5.4c0,2.9 -1.3,5.7 -4.8,5.7c-3.5,0 -4.6,-2.8 -4.6,-5.5zm6.3,-0.1c0,-1.7 -0.2,-3.2 -1.5,-3.2c-1.4,0 -1.6,1.5 -1.6,3.2c0,1.9 0.3,3.2 1.6,3.2c1.2,0.1 1.5,-1.4 1.5,-3.2z"/>
    <path stroke="null" id="svg_94" d="m2347.038329,1601.329452l-0.7,2.6c-0.3,-0.3 -0.6,-0.4 -1.2,-0.4c-0.6,0 -1.3,0.4 -1.7,0.7l0,7.4l-3.1,0l0,-10.7l2.7,0l0.2,1.1c0.5,-0.6 1.2,-1.3 2.3,-1.3c0.7,0 1.2,0.3 1.5,0.6z"/>
    <path stroke="null" id="svg_95" d="m2361.038329,1601.829452c0.9,-0.7 2,-1.1 3.2,-1.1c1.9,0 2.8,0.9 3,2.3c0.1,0.4 0.1,1 0.1,1.3l0,7.3l-3,0l0,-6.9c0,-0.2 0,-0.5 0,-0.7c-0.1,-0.7 -0.5,-0.8 -1,-0.8c-0.6,0 -1.2,0.3 -1.6,0.6l0,7.8l-3,0l0,-6.9c0,-0.2 0,-0.5 0,-0.7c-0.1,-0.6 -0.5,-0.8 -1,-0.8c-0.7,0 -1.4,0.4 -1.8,0.7l0,7.7l-3.1,0l0,-10.7l2.7,0l0.1,0.9c0.7,-0.6 1.8,-1.1 3,-1.1c1.1,0 1.9,0.4 2.4,1.1z"/>
    <path stroke="null" id="svg_96" d="m2371.238329,1596.429452c1.1,0 1.7,0.6 1.7,1.7c0,1.1 -0.8,1.7 -1.7,1.7c-1,0 -1.7,-0.6 -1.7,-1.7c0,-1.2 0.7,-1.7 1.7,-1.7zm1.5,4.5l0,10.7l-3,0l0,-10.7l3,0z"/>
    <path stroke="null" id="svg_97" d="m2377.938329,1601.829452c0.7,-0.6 1.8,-1.1 3,-1.1c1.9,0 2.8,0.9 3,2.3c0.1,0.4 0.1,1 0.1,1.3l0,7.3l-3,0l0,-6.9c0,-0.2 0,-0.5 0,-0.7c-0.1,-0.6 -0.5,-0.8 -1.1,-0.8c-0.7,0 -1.3,0.4 -1.7,0.7l0,7.7l-3.1,0l0,-10.7l2.7,0l0.1,0.9z"/>
    <path stroke="null" id="svg_98" d="m2389.038329,1606.829452c0.1,1.8 1,2.6 2.3,2.6c1,0 1.9,-0.3 2.9,-0.8l0.1,2.5c-0.7,0.4 -2,0.7 -3.3,0.7c-4,0 -5,-2.6 -5,-5.7c0,-3.8 2,-5.4 4.5,-5.4c2.9,0 4.1,1.9 4.1,5l0,1.1l-5.6,0zm1.4,-4c-0.9,0 -1.4,0.9 -1.4,2.2l2.7,0c0,-1.5 -0.5,-2.2 -1.3,-2.2z"/>
    <path stroke="null" id="svg_99" d="m2402.938329,1601.329452l-0.7,2.6c-0.3,-0.3 -0.6,-0.4 -1.2,-0.4c-0.6,0 -1.3,0.4 -1.7,0.7l0,7.4l-3.1,0l0,-10.7l2.7,0l0.2,1.1c0.5,-0.6 1.2,-1.3 2.3,-1.3c0.7,0 1.1,0.3 1.5,0.6z"/>
    <path stroke="null" id="svg_100" d="m2403.738329,1601.229452c0.6,-0.2 2.1,-0.6 3.5,-0.6c2.1,0 3.7,0.5 4.2,2.7c0.1,0.6 0.2,1.3 0.2,2.1l0,3.5c0,0.5 0.1,0.8 0.6,0.8c0.1,0 0.3,0 0.5,-0.1l0.2,1.8c-0.6,0.2 -1.3,0.4 -1.9,0.4c-1,0 -1.6,-0.4 -1.8,-1.2c-0.6,0.6 -1.6,1.2 -3,1.2c-2.2,0 -3.2,-1.5 -3.2,-3.4c0,-2.4 1.4,-3.7 4.1,-3.7c0.6,0 1,0.1 1.6,0.2l0,-0.3c0,-1.2 -0.8,-1.6 -1.9,-1.6c-1,0 -1.9,0.2 -2.6,0.5l-0.5,-2.3zm5,5.5c-0.2,-0.1 -0.6,-0.2 -1.1,-0.2c-1,0 -1.7,0.5 -1.7,1.6c0,0.9 0.4,1.5 1.2,1.5c0.6,0 1.3,-0.4 1.6,-0.8l0,-2.1z"/>
    <path stroke="null" id="svg_101" d="m2414.238329,1597.229452l3,0l0,10.9c0,0.8 0.3,1.2 0.9,1.2c0.4,0 0.7,-0.1 1.3,-0.3l0.4,2.3c-0.8,0.4 -1.7,0.5 -2.5,0.5c-2.4,0 -3,-1.3 -3,-3.2l0,-11.4l-0.1,0z"/>
    <path stroke="null" id="svg_102" d="m2424.538329,1603.029452l0,8.6l-3,0l0,-8.6l-1.5,0l0,-2.1l1.5,0c0,-0.6 0,-1.1 0.2,-1.6c0.4,-1.5 1.6,-2.4 3.7,-2.4c0.9,0 1.9,0.1 2.5,0.4l-0.2,2.1c-0.4,-0.1 -1.3,-0.3 -1.9,-0.3c-1,0 -1.3,0.6 -1.3,1.5l0,0.3l2.5,0l0,2.1l-2.5,0z"/>
    <path stroke="null" id="svg_103" d="m2427.638329,1606.329452c0,-3.1 1.5,-5.6 4.8,-5.6c3.6,0 4.6,2.5 4.6,5.4c0,2.9 -1.3,5.7 -4.8,5.7s-4.6,-2.8 -4.6,-5.5zm6.2,-0.1c0,-1.7 -0.2,-3.2 -1.5,-3.2c-1.4,0 -1.6,1.5 -1.6,3.2c0,1.9 0.3,3.2 1.6,3.2c1.2,0.1 1.5,-1.4 1.5,-3.2z"/>
    <path stroke="null" id="svg_104" d="m2445.438329,1601.329452l-0.7,2.6c-0.3,-0.3 -0.6,-0.4 -1.2,-0.4c-0.6,0 -1.3,0.4 -1.7,0.7l0,7.4l-3.1,0l0,-10.7l2.7,0l0.2,1.1c0.5,-0.6 1.2,-1.3 2.3,-1.3c0.8,0 1.2,0.3 1.5,0.6z"/>
    <path stroke="null" id="svg_105" d="m2456.138329,1601.229452l-3.1,10.4l-3.7,0l-3.3,-10.4l3.2,-0.3l1.4,5.6c0.2,0.9 0.4,1.9 0.5,2.7l0.1,0c0.1,-0.9 0.3,-1.9 0.5,-2.6l1.4,-5.7l3,0.3z"/>
    <path stroke="null" id="svg_106" d="m2457.238329,1601.229452c0.6,-0.2 2.1,-0.6 3.5,-0.6c2.1,0 3.7,0.5 4.2,2.7c0.1,0.6 0.2,1.3 0.2,2.1l0,3.5c0,0.5 0.1,0.8 0.6,0.8c0.1,0 0.3,0 0.5,-0.1l0.2,1.8c-0.6,0.2 -1.3,0.4 -1.9,0.4c-1,0 -1.6,-0.4 -1.8,-1.2c-0.6,0.6 -1.6,1.2 -3,1.2c-2.2,0 -3.2,-1.5 -3.2,-3.4c0,-2.4 1.4,-3.7 4.1,-3.7c0.6,0 1,0.1 1.6,0.2l0,-0.3c0,-1.2 -0.8,-1.6 -1.9,-1.6c-1,0 -1.9,0.2 -2.6,0.5l-0.5,-2.3zm5,5.5c-0.2,-0.1 -0.6,-0.2 -1.1,-0.2c-1,0 -1.7,0.5 -1.7,1.6c0,0.9 0.4,1.5 1.2,1.5c0.6,0 1.3,-0.4 1.6,-0.8l0,-2.1z"/>
    <path stroke="null" id="svg_107" d="m2467.738329,1597.229452l3,0l0,10.9c0,0.8 0.3,1.2 0.9,1.2c0.4,0 0.7,-0.1 1.3,-0.3l0.4,2.3c-0.8,0.4 -1.7,0.5 -2.5,0.5c-2.4,0 -3,-1.3 -3,-3.2l0,-11.4l-0.1,0z"/>
    <path stroke="null" id="svg_108" d="m2477.538329,1603.029452l0,5c0,0.6 0.1,1.3 0.9,1.3c0.4,0 0.8,-0.1 1.3,-0.3l0.4,2.3c-0.7,0.3 -1.7,0.5 -2.6,0.5c-2.2,0 -3,-1.3 -3,-3.1l0,-5.7l-1.4,0l0,-2.1l1.4,0l0,-1.8l3.1,-1.4l0,3.2l2.3,0l0,2.1l-2.4,0z"/>
    <path stroke="null" id="svg_109" d="m2484.438329,1601.829452c0.7,-0.6 1.8,-1.1 3,-1.1c1.9,0 2.8,0.9 3,2.3c0.1,0.4 0.1,1 0.1,1.3l0,7.3l-3,0l0,-6.9c0,-0.2 0,-0.5 0,-0.7c-0.1,-0.6 -0.5,-0.8 -1.1,-0.8c-0.7,0 -1.3,0.4 -1.7,0.7l0,7.7l-3.1,0l0,-10.7l2.7,0l0.1,0.9z"/>
    <path stroke="null" id="svg_110" d="m2494.438329,1596.429452c1.1,0 1.7,0.6 1.7,1.7c0,1.1 -0.8,1.7 -1.7,1.7c-1,0 -1.7,-0.6 -1.7,-1.7c0,-1.2 0.8,-1.7 1.7,-1.7zm1.6,4.5l0,10.7l-3,0l0,-10.7l3,0z"/>
    <path stroke="null" id="svg_111" d="m2501.238329,1601.829452c0.7,-0.6 1.8,-1.1 3,-1.1c1.9,0 2.8,0.9 3,2.3c0.1,0.4 0.1,1 0.1,1.3l0,7.3l-3,0l0,-6.9c0,-0.2 0,-0.5 0,-0.7c-0.1,-0.6 -0.5,-0.8 -1.1,-0.8c-0.7,0 -1.3,0.4 -1.7,0.7l0,7.7l-3.1,0l0,-10.7l2.7,0l0.1,0.9z"/>
    <path stroke="null" id="svg_112" d="m2515.738329,1600.929452l2.7,0l0,10.6c0,2.4 -1,4.6 -4.5,4.6c-1.5,0 -3.1,-0.4 -3.9,-0.8l0.4,-2.5c0.9,0.5 2.2,0.8 3.1,0.8c1.2,0 1.9,-0.7 1.9,-2.2l0,-0.7c-0.4,0.5 -1.2,0.9 -2.4,0.9c-2.3,0 -3.9,-1.7 -3.9,-5.4c0,-2.8 1.2,-5.6 4,-5.6c1.2,0 1.9,0.5 2.4,0.9l0.2,-0.6zm-0.3,2.6c-0.4,-0.3 -0.9,-0.5 -1.3,-0.5c-0.9,0 -1.7,0.6 -1.7,3.3c0,2.1 0.6,3 1.7,3c0.5,0 1,-0.3 1.4,-0.6l0,-5.2l-0.1,0z"/>
   </g>
   <g stroke="null" transform="matrix(2.1346448303236554,0,0,2.1346448303236554,-4546.103080357294,-3319.2222573640197) " id="svg_113">
    <path stroke="null" id="svg_114" d="m2219.238329,1627.729452c0.9,-0.8 2.1,-1.4 3.3,-1.4c1.6,0 2.5,0.7 2.8,2.1c0.1,0.3 0.1,0.9 0.1,1.3l0,7.4l-1.3,0l0,-7.2c0,-0.3 0,-0.8 -0.1,-1.1c-0.2,-0.9 -0.7,-1.3 -1.7,-1.3c-1,0 -2,0.6 -2.8,1.3c0,0.3 0,0.7 0,1.1l0,7.2l-1.3,0l0,-7.2c0,-0.3 0,-0.8 -0.1,-1.1c-0.1,-0.9 -0.6,-1.3 -1.6,-1.3c-1.3,0 -2.4,0.8 -3.2,1.6l0,8l-1.3,0l0,-10.6l1.3,0l0,1.3c1,-0.8 2.1,-1.5 3.5,-1.5c1.3,0 2.1,0.5 2.4,1.4z"/>
    <path stroke="null" id="svg_115" d="m2229.638329,1631.929452c0,2.6 0.9,4.2 3,4.2c1.1,0 2.1,-0.4 2.8,-0.8l0.1,1.2c-0.6,0.3 -1.8,0.7 -3.1,0.7c-3.3,0 -4.2,-2.6 -4.2,-5.6c0,-3.9 1.6,-5.4 4,-5.4c2.5,0 3.5,1.8 3.5,4.9l0,0.8l-6.1,0zm2.5,-4.4c-1.8,0 -2.5,1.8 -2.5,3.4l4.7,0c0,-2.3 -0.8,-3.4 -2.2,-3.4z"/>
    <path stroke="null" id="svg_116" d="m2244.238329,1627.229452l0,-4.5l1.3,0l0,14.4l-1.3,0l0,-1.1c-0.7,0.7 -1.6,1.3 -2.8,1.3c-2.1,0 -3.6,-1.7 -3.6,-5.3c0,-2.6 1,-5.7 3.9,-5.7c1,0 1.7,0.4 2.5,0.9zm-2.6,8.9c1.1,0 2,-0.7 2.5,-1.4l0,-6.2c-0.7,-0.6 -1.5,-1 -2.4,-1c-1.4,0 -2.6,1 -2.6,4.5c0.1,2.7 1.1,4.1 2.5,4.1z"/>
    <path stroke="null" id="svg_117" d="m2254.238329,1637.129452l0,-14.4l4.2,0c2.7,0 4.4,1.1 4.4,3.3c0,1.8 -1.1,3 -2.2,3.5c1.8,0.4 2.8,1.7 2.8,3.3c0,2.7 -1.9,4.2 -4.8,4.2l-4.4,0l0,0.1zm1.3,-13.2l0,5.1l2.7,0c2.1,0 3.1,-1.3 3.1,-2.8c0,-1.7 -1,-2.3 -3.2,-2.3l-2.6,0zm0,6.3l0,5.7l3.1,0c2.3,0 3.2,-1.3 3.2,-3c0,-1.6 -1,-2.7 -3.1,-2.7l-3.2,0z"/>
    <path stroke="null" id="svg_118" d="m2266.738329,1631.929452c0,2.6 0.9,4.2 3,4.2c1.1,0 2.1,-0.4 2.8,-0.8l0.1,1.2c-0.6,0.3 -1.8,0.7 -3.1,0.7c-3.3,0 -4.2,-2.6 -4.2,-5.6c0,-3.9 1.6,-5.4 4,-5.4c2.5,0 3.5,1.8 3.5,4.9l0,0.8l-6.1,0zm2.5,-4.4c-1.8,0 -2.5,1.8 -2.5,3.4l4.7,0c0,-2.3 -0.8,-3.4 -2.2,-3.4z"/>
    <path stroke="null" id="svg_119" d="m2281.338329,1627.929452l-1.1,0.6c-0.3,-0.6 -0.5,-1 -1.3,-1c-0.8,0 -1.6,0.8 -2.1,1.4l0,8.1l-1.3,0l0,-10.5l1.3,0l0,1.2c0.7,-0.7 1.5,-1.4 2.6,-1.4c1.1,0 1.7,0.8 1.9,1.6z"/>
    <path stroke="null" id="svg_120" d="m2288.938329,1627.229452l0,-0.7l1.3,0l0,10.3c0,2.6 -0.6,4.7 -3.9,4.7c-1.4,0 -2.7,-0.5 -3.3,-0.8l0.2,-1.3c0.6,0.4 2,0.9 3.2,0.9c2.2,0 2.5,-1.8 2.5,-3.7l0,-0.6c-0.7,0.7 -1.6,1.3 -2.8,1.3c-2.1,0 -3.6,-1.7 -3.6,-5.3c0,-2.6 1,-5.7 3.9,-5.7c1.1,0 1.8,0.4 2.5,0.9zm-2.5,8.9c1.1,0 2,-0.7 2.5,-1.4l0,-6.2c-0.7,-0.6 -1.5,-1 -2.4,-1c-1.4,0 -2.6,1 -2.6,4.5c0,2.7 1.1,4.1 2.5,4.1z"/>
    <path stroke="null" id="svg_121" d="m2300.938329,1627.729452c0.9,-0.8 2.1,-1.4 3.3,-1.4c1.6,0 2.5,0.7 2.8,2.1c0.1,0.3 0.1,0.9 0.1,1.3l0,7.4l-1.3,0l0,-7.2c0,-0.3 0,-0.8 -0.1,-1.1c-0.2,-0.9 -0.7,-1.3 -1.7,-1.3c-1,0 -2,0.6 -2.8,1.3c0,0.3 0,0.7 0,1.1l0,7.2l-1.3,0l0,-7.2c0,-0.3 0,-0.8 -0.1,-1.1c-0.1,-0.9 -0.6,-1.3 -1.6,-1.3c-1.3,0 -2.4,0.8 -3.2,1.6l0,8l-1.3,0l0,-10.6l1.3,0l0,1.3c1,-0.8 2.1,-1.5 3.5,-1.5c1.3,0 2.1,0.5 2.4,1.4z"/>
    <path stroke="null" id="svg_122" d="m2311.338329,1631.929452c0,2.6 0.9,4.2 3,4.2c1.1,0 2.1,-0.4 2.8,-0.8l0.1,1.2c-0.6,0.3 -1.8,0.7 -3.1,0.7c-3.3,0 -4.2,-2.6 -4.2,-5.6c0,-3.9 1.6,-5.4 4,-5.4c2.5,0 3.5,1.8 3.5,4.9l0,0.8l-6.1,0zm2.5,-4.4c-1.8,0 -2.5,1.8 -2.5,3.4l4.7,0c0,-2.3 -0.8,-3.4 -2.2,-3.4z"/>
    <path stroke="null" id="svg_123" d="m2319.538329,1635.029452c0.5,0.4 1.7,1.2 2.9,1.2c1.2,0 2.2,-0.5 2.2,-1.7c0,-2.9 -5.3,-1.2 -5.3,-5.2c0,-1.9 1.6,-2.9 3.4,-2.9c2.1,0 3.1,1.3 3.3,2.4l-1.1,0.4c-0.3,-1.2 -1.2,-1.7 -2.2,-1.7c-1,0 -2,0.5 -2,1.7c0,2.9 5.3,1.3 5.3,5c0,1.7 -1.2,3.1 -3.6,3.1c-1.4,0 -2.8,-0.7 -3.2,-1.1l0.3,-1.2z"/>
    <path stroke="null" id="svg_124" d="m2330.038329,1627.629452l0,6.5c0,1.1 0.1,2 1.1,2c0.5,0 1,-0.2 1.5,-0.4l0.1,1.1c-0.4,0.2 -1.2,0.5 -1.9,0.5c-1.6,0 -2.2,-1 -2.2,-2.6l0,-7.1l-1.4,0l0,-1.1l1.4,0l0,-1.7l1.3,-0.8l0,2.5l2.8,0l0,1.1l-2.7,0z"/>
    <path stroke="null" id="svg_125" d="m2335.638329,1631.929452c0,2.6 0.9,4.2 3,4.2c1.1,0 2.1,-0.4 2.8,-0.8l0.1,1.2c-0.6,0.3 -1.8,0.7 -3.1,0.7c-3.3,0 -4.2,-2.6 -4.2,-5.6c0,-3.9 1.6,-5.4 4,-5.4c2.5,0 3.5,1.8 3.5,4.9l0,0.8l-6.1,0zm2.5,-4.4c-1.8,0 -2.5,1.8 -2.5,3.4l4.7,0c0,-2.3 -0.8,-3.4 -2.2,-3.4z"/>
    <path stroke="null" id="svg_126" d="m2350.338329,1627.929452l-1.1,0.6c-0.3,-0.6 -0.5,-1 -1.3,-1c-0.8,0 -1.6,0.8 -2.1,1.4l0,8.1l-1.3,0l0,-10.5l1.3,0l0,1.2c0.7,-0.7 1.5,-1.4 2.6,-1.4c1,0 1.6,0.8 1.9,1.6z"/>
    <path stroke="null" id="svg_127" d="m2352.738329,1631.929452c0,2.6 0.9,4.2 3,4.2c1.1,0 2.1,-0.4 2.8,-0.8l0.1,1.2c-0.6,0.3 -1.8,0.7 -3.1,0.7c-3.3,0 -4.2,-2.6 -4.2,-5.6c0,-3.9 1.6,-5.4 4,-5.4c2.5,0 3.5,1.8 3.5,4.9l0,0.8l-6.1,0zm2.5,-4.4c-1.8,0 -2.5,1.8 -2.5,3.4l4.7,0c0,-2.3 -0.8,-3.4 -2.2,-3.4z"/>
    <path stroke="null" id="svg_128" d="m2369.138329,1628.429452c0.1,0.3 0.1,0.9 0.1,1.3l0,7.4l-1.3,0l0,-7.2c0,-0.3 0,-0.8 -0.1,-1.1c-0.2,-0.9 -0.7,-1.3 -1.8,-1.3c-1.2,0 -2.3,0.8 -3.1,1.5l0,8l-1.3,0l0,-10.5l1.3,0l0,1.3c0.9,-0.8 2.1,-1.5 3.5,-1.5c1.5,0 2.4,0.7 2.7,2.1z"/>
    <path stroke="null" id="svg_129" d="m2379.038329,1627.629452l0,9.5l-1.3,0l0,-9.5l-1.7,0l0,-1.1l1.7,0l0,-0.9c0,-1.9 1,-3.1 3.2,-3.1c0.6,0 1.4,0.1 1.8,0.2l-0.1,1.1c-0.5,-0.1 -1,-0.2 -1.7,-0.2c-1.3,0 -1.9,0.6 -1.9,2.2l0,0.8l2.7,0l0,1.1l-2.7,0l0,-0.1z"/>
    <path stroke="null" id="svg_130" d="m2382.538329,1631.929452c0,-3 1.3,-5.6 4.2,-5.6c3.1,0 3.9,2.6 3.9,5.4c0,2.7 -1,5.7 -4.1,5.7c-3.2,-0.1 -4,-3 -4,-5.5zm6.7,-0.2c0,-1.7 -0.3,-4.3 -2.6,-4.3c-2.3,0 -2.7,2.8 -2.7,4.4c0,2.1 0.6,4.3 2.6,4.3c2.2,0.1 2.7,-2.4 2.7,-4.4z"/>
    <path stroke="null" id="svg_131" d="m2399.238329,1627.929452l-1.1,0.6c-0.3,-0.6 -0.5,-1 -1.3,-1c-0.8,0 -1.6,0.8 -2.1,1.4l0,8.1l-1.3,0l0,-10.5l1.3,0l0,1.2c0.7,-0.7 1.5,-1.4 2.6,-1.4c1.1,0 1.7,0.8 1.9,1.6z"/>
    <path stroke="null" id="svg_132" d="m2405.838329,1634.729452c0.8,0.7 1.9,1.4 3.6,1.4c1.6,0 3,-0.7 3,-2.7c0,-2.2 -1.4,-2.7 -3.4,-3.3c-1.7,-0.6 -3.4,-1.2 -3.4,-3.9c0,-2.4 1.9,-3.8 4.3,-3.8c2.8,0 4,1.8 4.1,3.2l-1.3,0.4c-0.4,-1.5 -1.5,-2.3 -2.9,-2.3c-1.4,0 -2.7,0.7 -2.7,2.5c0,1.9 1.3,2.3 3,2.8c1.9,0.6 3.9,1.3 3.9,4.2c0,2.4 -1.5,4.1 -4.5,4.1c-2.1,0 -3.6,-0.9 -4.2,-1.4l0.5,-1.2z"/>
    <path stroke="null" id="svg_133" d="m2423.538329,1626.729452l-3.4,10.4l-1.8,0l-3.3,-10.4l1.4,-0.1l2.9,9.2l2.9,-9.2l1.3,0.1z"/>
    <path stroke="null" id="svg_134" d="m2425.638329,1626.729452c0.7,-0.2 2,-0.4 3,-0.4c2.2,0 3.3,1 3.3,3.3l0,5.7c0,0.6 0.2,0.9 0.7,0.9c0.3,0 0.5,-0.1 0.9,-0.2l0.1,1.1c-0.4,0.1 -0.8,0.3 -1.3,0.3c-1,0 -1.5,-0.6 -1.6,-1.3c-0.9,0.8 -1.9,1.3 -3,1.3c-2.1,0 -3,-1.5 -3,-3.3c0,-2.6 1.6,-3.6 4.1,-3.6c0.6,0 1.2,0.1 1.8,0.2l0,-0.8c0,-1.6 -0.6,-2.4 -2.4,-2.4c-0.8,0 -1.8,0.2 -2.5,0.4l-0.1,-1.2zm5.1,4.9c-0.6,-0.1 -1.1,-0.2 -1.6,-0.2c-1.9,0 -2.9,0.7 -2.9,2.6c0,1.1 0.6,2.1 1.9,2.1c1,0 1.9,-0.5 2.6,-1.2l0,-3.3z"/>
    <path stroke="null" id="svg_135" d="m2435.438329,1622.729452l1.3,0l0,11.7c0,1.2 0.3,1.8 1.2,1.8c0.5,0 1.1,-0.2 1.6,-0.4l0.2,1.1c-0.5,0.3 -1.4,0.5 -2,0.5c-1.8,0 -2.3,-1.1 -2.3,-2.7l0,-12z"/>
    <path stroke="null" id="svg_136" d="m2446.338329,1626.329452c1.9,0 3.2,1.5 3.2,4.6c0,3.7 -1.2,6.3 -4.4,6.3c-1.3,0 -2.5,-0.4 -3.3,-0.9l0,-13.6l1.3,0l0,5c0.8,-0.6 2,-1.4 3.2,-1.4zm-0.4,1.3c-1,0 -2.1,0.7 -2.8,1.2l0,6.8c0.6,0.3 1.3,0.5 2,0.5c2.3,0 2.9,-2.3 2.9,-4.7c0,-3.1 -0.9,-3.8 -2.1,-3.8z"/>
    <path stroke="null" id="svg_137" d="m2452.338329,1626.729452c0.7,-0.2 2,-0.4 3,-0.4c2.2,0 3.3,1 3.3,3.3l0,5.7c0,0.6 0.2,0.9 0.7,0.9c0.3,0 0.5,-0.1 0.9,-0.2l0.1,1.1c-0.4,0.1 -0.8,0.3 -1.3,0.3c-1,0 -1.5,-0.6 -1.6,-1.3c-0.9,0.8 -1.9,1.3 -3,1.3c-2.1,0 -3,-1.5 -3,-3.3c0,-2.6 1.6,-3.6 4.1,-3.6c0.6,0 1.2,0.1 1.8,0.2l0,-0.8c0,-1.6 -0.6,-2.4 -2.4,-2.4c-0.8,0 -1.8,0.2 -2.5,0.4l-0.1,-1.2zm5.1,4.9c-0.6,-0.1 -1.1,-0.2 -1.6,-0.2c-1.9,0 -2.9,0.7 -2.9,2.6c0,1.1 0.6,2.1 1.9,2.1c1,0 1.9,-0.5 2.6,-1.2l0,-3.3z"/>
    <path stroke="null" id="svg_138" d="m2468.338329,1627.929452l-1.1,0.6c-0.3,-0.6 -0.5,-1 -1.3,-1c-0.8,0 -1.6,0.8 -2.1,1.4l0,8.1l-1.3,0l0,-10.5l1.3,0l0,1.2c0.7,-0.7 1.5,-1.4 2.6,-1.4c1,0 1.6,0.8 1.9,1.6z"/>
    <path stroke="null" id="svg_139" d="m2475.938329,1627.229452l0,-4.5l1.3,0l0,14.4l-1.3,0l0,-1.1c-0.7,0.7 -1.6,1.3 -2.8,1.3c-2.1,0 -3.6,-1.7 -3.6,-5.3c0,-2.6 1,-5.7 3.9,-5.7c1,0 1.7,0.4 2.5,0.9zm-2.5,8.9c1.1,0 2,-0.7 2.5,-1.4l0,-6.2c-0.7,-0.6 -1.5,-1 -2.4,-1c-1.4,0 -2.6,1 -2.6,4.5c0,2.7 1,4.1 2.5,4.1z"/>
   </g>
  </g>
 </g>
</svg>